PathFileType	4	(X/Y/Z)	Patient4_TMGait_0pt2_03_left_24.trc.trc
DataRate	CameraRate	NumFrames	NumMarkers	Units	OrigDataRate	OrigDataStartFrame	OrigNumFrames
48.780487804878	48.780487804878	5	33	mm	48.780487804878	89	       141
Frame#	Time	Sacral			L.Shoulder			Chest			R.Shoulder			Neck			R.ASIS			L.ASIS			R.Thigh.Superior			R.Thigh.Lateral			R.Thigh.Inferior			R.Patella			L.Thigh.Superior			L.Thigh.Lateral			L.Thigh.Inferior			L.Patella			L.Shank.Superior			L.Shank.Lateral			L.Shank.Inferior			R.Shank.Superior			R.Shank.Lateral			R.Shank.Inferior			R.Heel			R.Midfoot.Superior			R.Midfoot.Lateral			R.Toe			L.Heel			L.Midfoot.Lateral			L.Midfoot.Superior			L.Toe			L.Elbow			L.Wrist			R.Elbow			R.Wrist			
		X1	Y1	Z1	X2	Y2	Z2	X3	Y3	Z3	X4	Y4	Z4	X5	Y5	Z5	X6	Y6	Z6	X7	Y7	Z7	X8	Y8	Z8	X9	Y9	Z9	X10	Y10	Z10	X11	Y11	Z11	X12	Y12	Z12	X13	Y13	Z13	X14	Y14	Z14	X15	Y15	Z15	X16	Y16	Z16	X17	Y17	Z17	X18	Y18	Z18	X19	Y19	Z19	X20	Y20	Z20	X21	Y21	Z21	X22	Y22	Z22	X23	Y23	Z23	X24	Y24	Z24	X25	Y25	Z25	X26	Y26	Z26	X27	Y27	Z27	X28	Y28	Z28	X29	Y29	Z29	X30	Y30	Z30	X31	Y31	Z31	X32	Y32	Z32	X33	Y33	Z33	

89	51.954000000000	893.271204622154	995.913764698037	485.950983951524	1073.070924060569	1428.905603303444	321.325455728201	1146.876935896730	1371.294612327240	499.770629672876	1027.802705926354	1445.751917130614	651.166666423153	1024.277323466333	1493.503680856342	470.728226249657	1112.410402494303	942.768595670839	628.089767360067	1123.561207339152	966.260011487357	353.769182091729	1175.728650443660	748.078565462295	593.925395130128	1104.329344096743	630.404160086430	651.568868090867	1189.631824506142	585.238670282239	574.637660799390	1199.251629333817	495.120165422625	581.777812670368	1132.724453496154	734.808705210089	366.276276624687	1012.550936052464	628.282153882494	292.172756415080	1090.213637274960	541.844367456650	351.624575307165	1077.775427116326	467.659706403524	351.790616487446	1029.707954473460	406.284181744007	341.230334916464	910.674852766839	323.654796455798	285.908293504100	933.713471133227	196.290288948673	344.934056599253	1168.430830247139	404.585879687593	588.599264893622	1096.902421660584	303.157634583508	654.302895266512	1134.738208616644	206.182592389482	591.724971514897	997.240817363991	43.813837677573	570.856221859639	1168.847883320674	97.165708291091	601.383759461519	1082.581929154086	37.454643138902	642.435893630772	1290.171553877177	46.009544916995	625.968414235776	774.345651347251	64.095624249289	379.350373338054	846.526709782432	49.045579953045	299.355785072238	937.765666968817	100.643292898446	323.645142107622	1057.306267685059	38.294977402238	293.710695126020	1122.401131177613	1080.092387042740	202.622960007874	1325.951482325503	926.475319831564	240.718406374481	943.042281670501	1114.225788782770	779.743885730770	1092.179529860214	902.446932992316	809.981801078521	
90	51.974500000000	895.641164751196	996.677524054958	493.411002430948	1072.131208405488	1429.160415018499	325.011362180269	1148.921180172475	1372.322851421896	502.449247745858	1032.314031657129	1446.975171663023	655.571780935651	1025.606991901011	1494.222278459166	474.920431310869	1116.667873875582	943.600216938215	632.458462476673	1124.039741531644	967.075519401907	358.092057147213	1177.350111813698	747.447748739040	597.685591809418	1104.772973378094	630.399093467016	655.388792411979	1188.877452244623	584.558979470232	577.694578829020	1197.330291431500	494.443799780448	584.295673710857	1136.959118050866	736.323305061203	369.391886808983	1018.251637916434	628.349415745112	295.549246316206	1099.006671106590	542.471654438820	353.005022400709	1087.261729760187	467.098963882618	351.992485152334	1036.904382478631	406.271067544485	342.024639787771	915.206247210648	327.390292889821	287.228408640720	935.637195784848	199.003072131428	344.760677970334	1165.992288813018	404.171436431323	590.777412850746	1094.148881227232	302.704364555119	655.963140276424	1131.405010335594	205.963330814835	592.620730166846	993.110538906043	43.873983474251	570.938208614619	1164.850687954815	97.098231273801	601.600724330647	1078.458074468243	37.462586695770	642.519696779008	1286.087386612560	45.705253620624	626.104327198975	772.550543273195	71.752648873165	378.820068566607	844.108945678215	53.500353381208	299.037630308546	937.075742510080	102.197537608881	322.861074116179	1053.935011128356	37.676599796586	293.694218675924	1113.753677691010	1078.257501183693	208.726751382360	1301.753152944269	904.058377255405	242.247737401300	956.449536247516	1113.969941085343	787.524868201159	1112.938597774140	907.377983583456	814.986327103318	
91	51.995000000000	897.563943123628	997.424990602942	500.850569098482	1070.767137309048	1429.306518574541	328.531908570386	1150.840162182898	1373.125736889595	504.750261766750	1037.144054662995	1448.064047954402	659.812112997304	1026.903502135498	1494.846771393353	479.022971892769	1120.599212042903	944.314947198456	636.509508642481	1123.951729566931	967.717210919294	362.133179856240	1178.559710384772	746.752896218345	601.229550246408	1104.835722352208	630.369414251584	659.061451663776	1187.672960893569	583.872055985061	580.562986532121	1194.956862459764	493.800133364833	586.680427890151	1141.571117585334	738.078284894853	372.386082589298	1025.037723150540	628.203294781656	298.729270825938	1109.192781194685	543.297438375438	354.308107636906	1098.310545387153	466.665613836909	352.091642667189	1045.590069927918	406.317251992423	342.701530321997	921.211929842964	331.508335712700	288.449190053310	938.613705002570	202.196864058634	344.517894351910	1163.197131891436	403.794522279334	592.878762217000	1091.107511475883	302.244790266600	657.536461514289	1127.933113998685	205.768984896003	593.489918405385	988.929937678760	43.902161699530	571.017408146708	1160.822182230503	97.016251838629	601.797378662131	1074.287490232475	37.447117835658	642.599554937342	1281.957506383210	45.425952194201	626.223362404994	771.653512100264	80.865745522736	378.348359478637	842.224723154024	59.025146988567	298.749701533803	937.032356354198	104.111060935974	322.039157016291	1050.527929391210	37.072329747177	293.688184770459	1103.831410090950	1076.508001363445	214.699796480960	1274.611463880715	883.557090603337	243.515499787755	970.789120137050	1113.736544928077	795.236583607586	1133.614393029280	911.989041725651	819.745684988999	
92	52.015500000000	899.030191979150	998.080004409223	508.217013152027	1069.020813478515	1429.305676907804	331.881743336285	1152.608649126626	1373.628763079770	506.667216484964	1042.229251343774	1448.924079240859	663.842128590611	1028.177617025577	1495.320286392263	483.006939640818	1124.153275411467	944.886259604153	640.242663618519	1123.299441797202	968.108563785964	365.894379146588	1179.446465090056	746.032487368100	604.523972841944	1104.684097374697	630.284857442785	662.529731724422	1186.208501817651	583.199386766523	583.183665958648	1192.363321606835	493.170781792543	588.859213823577	1146.484490458132	740.085808826628	375.291582589918	1032.863367982714	627.918845025537	301.725453573977	1120.646904555385	544.416881888446	355.628712858487	1110.816517154219	466.476239913149	352.201763479076	1055.713505100395	406.520185703748	343.320290381501	928.690566602748	336.062685928366	289.631957489750	942.680565560243	205.935922953926	344.242672467581	1160.238912023202	403.430876758461	594.833969543983	1087.950723178691	301.785767601016	658.986379135073	1124.415169198803	205.584832526124	594.290486829735	984.726840939095	43.906567192958	571.096463871771	1156.784710733390	96.932089237512	601.964025023875	1070.095984973283	37.418303224862	642.677279310194	1277.807486124131	45.185669362455	626.323465671781	771.853906943949	91.529229851060	378.029352750368	840.982214363953	65.758536822198	298.561863901713	937.674322799379	106.442799582081	321.221745435635	1047.032496358424	36.426739731530	293.675431372046	1092.555914908897	1074.878877688374	220.435169223881	1244.919912933119	865.414904575422	244.664765576109	985.978521269207	1113.465765110324	802.746659465180	1154.356608090829	916.265369628413	824.225732589387	
93	52.036000000000	900.050171590364	998.574058260620	515.469465645495	1066.929642460173	1429.126425542855	335.052416278505	1154.198312746894	1373.776353650537	508.194795831983	1047.498449626804	1449.478348180540	667.614059549370	1029.431176593233	1495.594823075099	486.834438753206	1127.289662622249	945.286893455009	643.663406072363	1122.088784951872	968.196299824904	369.390960802752	1180.102596472990	745.314750722923	607.521943001394	1104.493373035185	630.110274402528	665.736781665669	1184.674599728609	582.551241060960	585.486950157872	1189.784541074631	492.527579219324	590.753131523206	1151.583721435987	742.371495882843	378.168269173939	1041.630793671940	627.609738022524	304.564532496584	1133.172068558630	545.949837658610	357.079990299769	1124.601707007422	466.671463706142	352.447890101169	1067.154384328942	406.998853752342	343.952662757343	937.568200045050	341.109446528929	290.854756246868	947.838217306987	210.281410160019	343.990871538674	1157.306119941139	403.049675445200	596.572300570640	1084.840673417107	301.330131132919	660.276993543814	1120.931622409323	205.393975428449	594.982760534144	980.522308138027	43.895384619118	571.176024069680	1152.751561188619	96.855959891518	602.093001922300	1065.902799712197	37.384710528319	642.753059242996	1273.655202203086	44.994087921765	626.403418134845	773.328289250088	103.772389977769	377.979628791600	840.478994073270	73.796229512427	298.561804543914	939.020732402538	109.250855004265	320.461912945455	1043.399814618533	35.687969034223	293.636346788893	1079.919794090399	1073.429692932735	225.840682983384	1213.194589006996	849.934338643839	245.864948556751	1001.911554889620	1113.122393820381	809.919493749538	1175.308553288850	920.273096599040	828.369360902442	
